<?xml version="1.0" encoding="UTF-8" standalone="no"?>
<!DOCTYPE svg PUBLIC "-//W3C//DTD SVG 1.1//EN"
 "http://www.w3.org/Graphics/SVG/1.1/DTD/svg11.dtd">
<!-- Generated by graphviz version 2.44.1 (20200629.0846)
 -->
<!-- Title: G Pages: 1 -->
<svg width="524pt" height="148pt"
 viewBox="0.00 0.00 524.20 148.20" xmlns="http://www.w3.org/2000/svg" xmlns:xlink="http://www.w3.org/1999/xlink">
<g id="graph0" class="graph" transform="scale(1 1) rotate(0) translate(21.6 126.6)">
<title>G</title>
<polygon fill="#111111" stroke="transparent" points="-21.6,21.6 -21.6,-126.6 502.6,-126.6 502.6,21.6 -21.6,21.6"/>
<!-- buildNumber.js -->
<g id="node1" class="node">
<title>buildNumber.js</title>
<path fill="none" stroke="#c6c5fe" d="M348.33,-105C348.33,-105 256.67,-105 256.67,-105 252.83,-105 249,-101.17 249,-97.33 249,-97.33 249,-89.67 249,-89.67 249,-85.83 252.83,-82 256.67,-82 256.67,-82 348.33,-82 348.33,-82 352.17,-82 356,-85.83 356,-89.67 356,-89.67 356,-97.33 356,-97.33 356,-101.17 352.17,-105 348.33,-105"/>
<text text-anchor="middle" x="302.5" y="-89.8" font-family="Arial" font-size="14.00" fill="#c6c5fe">buildNumber.js</text>
</g>
<!-- segments.js -->
<g id="node2" class="node">
<title>segments.js</title>
<path fill="none" stroke="#cfffac" d="M473.33,-105C473.33,-105 399.67,-105 399.67,-105 395.83,-105 392,-101.17 392,-97.33 392,-97.33 392,-89.67 392,-89.67 392,-85.83 395.83,-82 399.67,-82 399.67,-82 473.33,-82 473.33,-82 477.17,-82 481,-85.83 481,-89.67 481,-89.67 481,-97.33 481,-97.33 481,-101.17 477.17,-105 473.33,-105"/>
<text text-anchor="middle" x="436.5" y="-89.8" font-family="Arial" font-size="14.00" fill="#cfffac">segments.js</text>
</g>
<!-- buildNumber.js&#45;&gt;segments.js -->
<g id="edge1" class="edge">
<title>buildNumber.js&#45;&gt;segments.js</title>
<path fill="none" stroke="#757575" d="M356.05,-93.5C364.43,-93.5 373.12,-93.5 381.53,-93.5"/>
<polygon fill="#757575" stroke="#757575" points="381.62,-97 391.62,-93.5 381.62,-90 381.62,-97"/>
</g>
<!-- buildTime.js -->
<g id="node3" class="node">
<title>buildTime.js</title>
<path fill="none" stroke="#c6c5fe" d="M192.33,-105C192.33,-105 118.67,-105 118.67,-105 114.83,-105 111,-101.17 111,-97.33 111,-97.33 111,-89.67 111,-89.67 111,-85.83 114.83,-82 118.67,-82 118.67,-82 192.33,-82 192.33,-82 196.17,-82 200,-85.83 200,-89.67 200,-89.67 200,-97.33 200,-97.33 200,-101.17 196.17,-105 192.33,-105"/>
<text text-anchor="middle" x="155.5" y="-89.8" font-family="Arial" font-size="14.00" fill="#c6c5fe">buildTime.js</text>
</g>
<!-- buildTime.js&#45;&gt;buildNumber.js -->
<g id="edge2" class="edge">
<title>buildTime.js&#45;&gt;buildNumber.js</title>
<path fill="none" stroke="#757575" d="M200,-93.5C212.12,-93.5 225.52,-93.5 238.51,-93.5"/>
<polygon fill="#757575" stroke="#757575" points="238.81,-97 248.81,-93.5 238.81,-90 238.81,-97"/>
</g>
<!-- getTime.js -->
<g id="node4" class="node">
<title>getTime.js</title>
<path fill="none" stroke="#cfffac" d="M187.83,-64C187.83,-64 123.17,-64 123.17,-64 119.33,-64 115.5,-60.17 115.5,-56.33 115.5,-56.33 115.5,-48.67 115.5,-48.67 115.5,-44.83 119.33,-41 123.17,-41 123.17,-41 187.83,-41 187.83,-41 191.67,-41 195.5,-44.83 195.5,-48.67 195.5,-48.67 195.5,-56.33 195.5,-56.33 195.5,-60.17 191.67,-64 187.83,-64"/>
<text text-anchor="middle" x="155.5" y="-48.8" font-family="Arial" font-size="14.00" fill="#cfffac">getTime.js</text>
</g>
<!-- index.js -->
<g id="node5" class="node">
<title>index.js</title>
<path fill="none" stroke="#c6c5fe" d="M54.33,-64C54.33,-64 7.67,-64 7.67,-64 3.83,-64 0,-60.17 0,-56.33 0,-56.33 0,-48.67 0,-48.67 0,-44.83 3.83,-41 7.67,-41 7.67,-41 54.33,-41 54.33,-41 58.17,-41 62,-44.83 62,-48.67 62,-48.67 62,-56.33 62,-56.33 62,-60.17 58.17,-64 54.33,-64"/>
<text text-anchor="middle" x="31" y="-48.8" font-family="Arial" font-size="14.00" fill="#c6c5fe">index.js</text>
</g>
<!-- index.js&#45;&gt;buildTime.js -->
<g id="edge3" class="edge">
<title>index.js&#45;&gt;buildTime.js</title>
<path fill="none" stroke="#757575" d="M62.28,-62.63C76.71,-67.47 94.26,-73.34 110.16,-78.66"/>
<polygon fill="#757575" stroke="#757575" points="109.21,-82.03 119.8,-81.89 111.43,-75.39 109.21,-82.03"/>
</g>
<!-- index.js&#45;&gt;getTime.js -->
<g id="edge4" class="edge">
<title>index.js&#45;&gt;getTime.js</title>
<path fill="none" stroke="#757575" d="M62.28,-52.5C75.17,-52.5 90.53,-52.5 104.99,-52.5"/>
<polygon fill="#757575" stroke="#757575" points="105.31,-56 115.31,-52.5 105.31,-49 105.31,-56"/>
</g>
<!-- updateDisplay.js -->
<g id="node6" class="node">
<title>updateDisplay.js</title>
<path fill="none" stroke="#cfffac" d="M205.33,-23C205.33,-23 105.67,-23 105.67,-23 101.83,-23 98,-19.17 98,-15.33 98,-15.33 98,-7.67 98,-7.67 98,-3.83 101.83,0 105.67,0 105.67,0 205.33,0 205.33,0 209.17,0 213,-3.83 213,-7.67 213,-7.67 213,-15.33 213,-15.33 213,-19.17 209.17,-23 205.33,-23"/>
<text text-anchor="middle" x="155.5" y="-7.8" font-family="Arial" font-size="14.00" fill="#cfffac">updateDisplay.js</text>
</g>
<!-- index.js&#45;&gt;updateDisplay.js -->
<g id="edge5" class="edge">
<title>index.js&#45;&gt;updateDisplay.js</title>
<path fill="none" stroke="#757575" d="M62.28,-42.37C76.71,-37.53 94.26,-31.66 110.16,-26.34"/>
<polygon fill="#757575" stroke="#757575" points="111.43,-29.61 119.8,-23.11 109.21,-22.97 111.43,-29.61"/>
</g>
</g>
</svg>
